%TF.GenerationSoftware,KiCad,Pcbnew,(5.1.6)-1*%
%TF.CreationDate,2021-01-05T23:21:16+01:00*%
%TF.ProjectId,LEDController,4c454443-6f6e-4747-926f-6c6c65722e6b,rev?*%
%TF.SameCoordinates,Original*%
%TF.FileFunction,Soldermask,Top*%
%TF.FilePolarity,Negative*%
%FSLAX46Y46*%
G04 Gerber Fmt 4.6, Leading zero omitted, Abs format (unit mm)*
G04 Created by KiCad (PCBNEW (5.1.6)-1) date 2021-01-05 23:21:16*
%MOMM*%
%LPD*%
G01*
G04 APERTURE LIST*
%ADD10O,1.800000X1.800000*%
%ADD11R,1.800000X1.800000*%
%ADD12R,2.250000X1.500000*%
%ADD13R,0.550000X1.500000*%
%ADD14O,2.100000X2.005000*%
%ADD15R,2.100000X2.005000*%
%ADD16C,3.100000*%
%ADD17R,3.100000X3.100000*%
G04 APERTURE END LIST*
D10*
%TO.C,ESP1*%
X127540000Y-78250000D03*
X125000000Y-78250000D03*
D11*
X122460000Y-78250000D03*
%TD*%
D12*
%TO.C,U4*%
X121750000Y-72250000D03*
D13*
X122700000Y-70050000D03*
X122050000Y-70050000D03*
X121400000Y-70050000D03*
X120750000Y-70050000D03*
X122700000Y-74450000D03*
X122050000Y-74450000D03*
X121400000Y-74450000D03*
X120750000Y-74450000D03*
%TD*%
D14*
%TO.C,Q2*%
X117159600Y-60355200D03*
X117159600Y-62895200D03*
D15*
X117159600Y-65435200D03*
%TD*%
D16*
%TO.C,GND3*%
X106771000Y-60279000D03*
D17*
X106771000Y-65359000D03*
%TD*%
D16*
%TO.C,GND2*%
X106771000Y-72420000D03*
D17*
X106771000Y-77500000D03*
%TD*%
D16*
%TO.C,GND1*%
X125750000Y-60170000D03*
D17*
X125750000Y-65250000D03*
%TD*%
%TO.C,C2*%
G36*
G01*
X125018750Y-72712500D02*
X125981250Y-72712500D01*
G75*
G02*
X126250000Y-72981250I0J-268750D01*
G01*
X126250000Y-73518750D01*
G75*
G02*
X125981250Y-73787500I-268750J0D01*
G01*
X125018750Y-73787500D01*
G75*
G02*
X124750000Y-73518750I0J268750D01*
G01*
X124750000Y-72981250D01*
G75*
G02*
X125018750Y-72712500I268750J0D01*
G01*
G37*
G36*
G01*
X125018750Y-70837500D02*
X125981250Y-70837500D01*
G75*
G02*
X126250000Y-71106250I0J-268750D01*
G01*
X126250000Y-71643750D01*
G75*
G02*
X125981250Y-71912500I-268750J0D01*
G01*
X125018750Y-71912500D01*
G75*
G02*
X124750000Y-71643750I0J268750D01*
G01*
X124750000Y-71106250D01*
G75*
G02*
X125018750Y-70837500I268750J0D01*
G01*
G37*
%TD*%
%TO.C,C1*%
G36*
G01*
X127768750Y-72712500D02*
X128731250Y-72712500D01*
G75*
G02*
X129000000Y-72981250I0J-268750D01*
G01*
X129000000Y-73518750D01*
G75*
G02*
X128731250Y-73787500I-268750J0D01*
G01*
X127768750Y-73787500D01*
G75*
G02*
X127500000Y-73518750I0J268750D01*
G01*
X127500000Y-72981250D01*
G75*
G02*
X127768750Y-72712500I268750J0D01*
G01*
G37*
G36*
G01*
X127768750Y-70837500D02*
X128731250Y-70837500D01*
G75*
G02*
X129000000Y-71106250I0J-268750D01*
G01*
X129000000Y-71643750D01*
G75*
G02*
X128731250Y-71912500I-268750J0D01*
G01*
X127768750Y-71912500D01*
G75*
G02*
X127500000Y-71643750I0J268750D01*
G01*
X127500000Y-71106250D01*
G75*
G02*
X127768750Y-70837500I268750J0D01*
G01*
G37*
%TD*%
D14*
%TO.C,Q1*%
X117000000Y-72420000D03*
X117000000Y-74960000D03*
D15*
X117000000Y-77500000D03*
%TD*%
M02*
