%TF.GenerationSoftware,KiCad,Pcbnew,(5.1.6)-1*%
%TF.CreationDate,2021-01-05T23:21:16+01:00*%
%TF.ProjectId,LEDController,4c454443-6f6e-4747-926f-6c6c65722e6b,rev?*%
%TF.SameCoordinates,Original*%
%TF.FileFunction,Copper,L2,Bot*%
%TF.FilePolarity,Positive*%
%FSLAX46Y46*%
G04 Gerber Fmt 4.6, Leading zero omitted, Abs format (unit mm)*
G04 Created by KiCad (PCBNEW (5.1.6)-1) date 2021-01-05 23:21:16*
%MOMM*%
%LPD*%
G01*
G04 APERTURE LIST*
%TA.AperFunction,ComponentPad*%
%ADD10O,1.700000X1.700000*%
%TD*%
%TA.AperFunction,ComponentPad*%
%ADD11R,1.700000X1.700000*%
%TD*%
%TA.AperFunction,ComponentPad*%
%ADD12O,2.000000X1.905000*%
%TD*%
%TA.AperFunction,ComponentPad*%
%ADD13R,2.000000X1.905000*%
%TD*%
%TA.AperFunction,ComponentPad*%
%ADD14C,3.000000*%
%TD*%
%TA.AperFunction,ComponentPad*%
%ADD15R,3.000000X3.000000*%
%TD*%
%TA.AperFunction,ViaPad*%
%ADD16C,0.800000*%
%TD*%
%TA.AperFunction,Conductor*%
%ADD17C,0.254000*%
%TD*%
G04 APERTURE END LIST*
D10*
%TO.P,ESP1,3*%
%TO.N,INB*%
X127540000Y-78250000D03*
%TO.P,ESP1,2*%
%TO.N,INA*%
X125000000Y-78250000D03*
D11*
%TO.P,ESP1,1*%
%TO.N,GND*%
X122460000Y-78250000D03*
%TD*%
D12*
%TO.P,Q2,3*%
%TO.N,GND*%
X117159600Y-60355200D03*
%TO.P,Q2,2*%
%TO.N,DRAINB*%
X117159600Y-62895200D03*
D13*
%TO.P,Q2,1*%
%TO.N,GATEB*%
X117159600Y-65435200D03*
%TD*%
D14*
%TO.P,GND3,2*%
%TO.N,VDD*%
X106771000Y-60279000D03*
D15*
%TO.P,GND3,1*%
%TO.N,DRAINB*%
X106771000Y-65359000D03*
%TD*%
D14*
%TO.P,GND2,2*%
%TO.N,VDD*%
X106771000Y-72420000D03*
D15*
%TO.P,GND2,1*%
%TO.N,DRAINA*%
X106771000Y-77500000D03*
%TD*%
D14*
%TO.P,GND1,2*%
%TO.N,VDD*%
X125750000Y-60170000D03*
D15*
%TO.P,GND1,1*%
%TO.N,GND*%
X125750000Y-65250000D03*
%TD*%
D12*
%TO.P,Q1,3*%
%TO.N,GND*%
X117000000Y-72420000D03*
%TO.P,Q1,2*%
%TO.N,DRAINA*%
X117000000Y-74960000D03*
D13*
%TO.P,Q1,1*%
%TO.N,GATEA*%
X117000000Y-77500000D03*
%TD*%
D16*
%TO.N,GND*%
X128250000Y-74750000D03*
X127250000Y-74750000D03*
X127250000Y-75750000D03*
X128250000Y-75750000D03*
X129250000Y-74750000D03*
X129250000Y-75750000D03*
%TD*%
D17*
%TO.N,GND*%
G36*
X129590001Y-80090000D02*
G01*
X102910000Y-80090000D01*
X102910000Y-76000000D01*
X104632928Y-76000000D01*
X104632928Y-79000000D01*
X104645188Y-79124482D01*
X104681498Y-79244180D01*
X104740463Y-79354494D01*
X104819815Y-79451185D01*
X104916506Y-79530537D01*
X105026820Y-79589502D01*
X105146518Y-79625812D01*
X105271000Y-79638072D01*
X108271000Y-79638072D01*
X108395482Y-79625812D01*
X108515180Y-79589502D01*
X108625494Y-79530537D01*
X108722185Y-79451185D01*
X108801537Y-79354494D01*
X108860502Y-79244180D01*
X108896812Y-79124482D01*
X108899223Y-79100000D01*
X120971928Y-79100000D01*
X120984188Y-79224482D01*
X121020498Y-79344180D01*
X121079463Y-79454494D01*
X121158815Y-79551185D01*
X121255506Y-79630537D01*
X121365820Y-79689502D01*
X121485518Y-79725812D01*
X121610000Y-79738072D01*
X122174250Y-79735000D01*
X122333000Y-79576250D01*
X122333000Y-78377000D01*
X121133750Y-78377000D01*
X120975000Y-78535750D01*
X120971928Y-79100000D01*
X108899223Y-79100000D01*
X108909072Y-79000000D01*
X108909072Y-76000000D01*
X108896812Y-75875518D01*
X108860502Y-75755820D01*
X108801537Y-75645506D01*
X108722185Y-75548815D01*
X108625494Y-75469463D01*
X108515180Y-75410498D01*
X108395482Y-75374188D01*
X108271000Y-75361928D01*
X105271000Y-75361928D01*
X105146518Y-75374188D01*
X105026820Y-75410498D01*
X104916506Y-75469463D01*
X104819815Y-75548815D01*
X104740463Y-75645506D01*
X104681498Y-75755820D01*
X104645188Y-75875518D01*
X104632928Y-76000000D01*
X102910000Y-76000000D01*
X102910000Y-74960000D01*
X115357319Y-74960000D01*
X115387970Y-75271204D01*
X115478745Y-75570449D01*
X115626155Y-75846235D01*
X115729446Y-75972095D01*
X115645506Y-76016963D01*
X115548815Y-76096315D01*
X115469463Y-76193006D01*
X115410498Y-76303320D01*
X115374188Y-76423018D01*
X115361928Y-76547500D01*
X115361928Y-78452500D01*
X115374188Y-78576982D01*
X115410498Y-78696680D01*
X115469463Y-78806994D01*
X115548815Y-78903685D01*
X115645506Y-78983037D01*
X115755820Y-79042002D01*
X115875518Y-79078312D01*
X116000000Y-79090572D01*
X118000000Y-79090572D01*
X118124482Y-79078312D01*
X118244180Y-79042002D01*
X118354494Y-78983037D01*
X118451185Y-78903685D01*
X118530537Y-78806994D01*
X118589502Y-78696680D01*
X118625812Y-78576982D01*
X118638072Y-78452500D01*
X118638072Y-77400000D01*
X120971928Y-77400000D01*
X120975000Y-77964250D01*
X121133750Y-78123000D01*
X122333000Y-78123000D01*
X122333000Y-76923750D01*
X122587000Y-76923750D01*
X122587000Y-78123000D01*
X122607000Y-78123000D01*
X122607000Y-78377000D01*
X122587000Y-78377000D01*
X122587000Y-79576250D01*
X122745750Y-79735000D01*
X123310000Y-79738072D01*
X123434482Y-79725812D01*
X123554180Y-79689502D01*
X123664494Y-79630537D01*
X123761185Y-79551185D01*
X123840537Y-79454494D01*
X123899502Y-79344180D01*
X123921513Y-79271620D01*
X124053368Y-79403475D01*
X124296589Y-79565990D01*
X124566842Y-79677932D01*
X124853740Y-79735000D01*
X125146260Y-79735000D01*
X125433158Y-79677932D01*
X125703411Y-79565990D01*
X125946632Y-79403475D01*
X126153475Y-79196632D01*
X126270000Y-79022240D01*
X126386525Y-79196632D01*
X126593368Y-79403475D01*
X126836589Y-79565990D01*
X127106842Y-79677932D01*
X127393740Y-79735000D01*
X127686260Y-79735000D01*
X127973158Y-79677932D01*
X128243411Y-79565990D01*
X128486632Y-79403475D01*
X128693475Y-79196632D01*
X128855990Y-78953411D01*
X128967932Y-78683158D01*
X129025000Y-78396260D01*
X129025000Y-78103740D01*
X128967932Y-77816842D01*
X128855990Y-77546589D01*
X128693475Y-77303368D01*
X128486632Y-77096525D01*
X128243411Y-76934010D01*
X127973158Y-76822068D01*
X127686260Y-76765000D01*
X127393740Y-76765000D01*
X127106842Y-76822068D01*
X126836589Y-76934010D01*
X126593368Y-77096525D01*
X126386525Y-77303368D01*
X126270000Y-77477760D01*
X126153475Y-77303368D01*
X125946632Y-77096525D01*
X125703411Y-76934010D01*
X125433158Y-76822068D01*
X125146260Y-76765000D01*
X124853740Y-76765000D01*
X124566842Y-76822068D01*
X124296589Y-76934010D01*
X124053368Y-77096525D01*
X123921513Y-77228380D01*
X123899502Y-77155820D01*
X123840537Y-77045506D01*
X123761185Y-76948815D01*
X123664494Y-76869463D01*
X123554180Y-76810498D01*
X123434482Y-76774188D01*
X123310000Y-76761928D01*
X122745750Y-76765000D01*
X122587000Y-76923750D01*
X122333000Y-76923750D01*
X122174250Y-76765000D01*
X121610000Y-76761928D01*
X121485518Y-76774188D01*
X121365820Y-76810498D01*
X121255506Y-76869463D01*
X121158815Y-76948815D01*
X121079463Y-77045506D01*
X121020498Y-77155820D01*
X120984188Y-77275518D01*
X120971928Y-77400000D01*
X118638072Y-77400000D01*
X118638072Y-76547500D01*
X118625812Y-76423018D01*
X118589502Y-76303320D01*
X118530537Y-76193006D01*
X118451185Y-76096315D01*
X118354494Y-76016963D01*
X118270554Y-75972095D01*
X118373845Y-75846235D01*
X118521255Y-75570449D01*
X118612030Y-75271204D01*
X118642681Y-74960000D01*
X118612030Y-74648796D01*
X118521255Y-74349551D01*
X118373845Y-74073765D01*
X118175463Y-73832037D01*
X117996101Y-73684837D01*
X118181315Y-73529437D01*
X118375969Y-73286923D01*
X118519571Y-73011094D01*
X118590563Y-72792980D01*
X118470594Y-72547000D01*
X117127000Y-72547000D01*
X117127000Y-72567000D01*
X116873000Y-72567000D01*
X116873000Y-72547000D01*
X115529406Y-72547000D01*
X115409437Y-72792980D01*
X115480429Y-73011094D01*
X115624031Y-73286923D01*
X115818685Y-73529437D01*
X116003899Y-73684837D01*
X115824537Y-73832037D01*
X115626155Y-74073765D01*
X115478745Y-74349551D01*
X115387970Y-74648796D01*
X115357319Y-74960000D01*
X102910000Y-74960000D01*
X102910000Y-72209721D01*
X104636000Y-72209721D01*
X104636000Y-72630279D01*
X104718047Y-73042756D01*
X104878988Y-73431302D01*
X105112637Y-73780983D01*
X105410017Y-74078363D01*
X105759698Y-74312012D01*
X106148244Y-74472953D01*
X106560721Y-74555000D01*
X106981279Y-74555000D01*
X107393756Y-74472953D01*
X107782302Y-74312012D01*
X108131983Y-74078363D01*
X108429363Y-73780983D01*
X108663012Y-73431302D01*
X108823953Y-73042756D01*
X108906000Y-72630279D01*
X108906000Y-72209721D01*
X108873637Y-72047020D01*
X115409437Y-72047020D01*
X115529406Y-72293000D01*
X116873000Y-72293000D01*
X116873000Y-70994430D01*
X117127000Y-70994430D01*
X117127000Y-72293000D01*
X118470594Y-72293000D01*
X118590563Y-72047020D01*
X118519571Y-71828906D01*
X118375969Y-71553077D01*
X118181315Y-71310563D01*
X117943089Y-71110684D01*
X117670446Y-70961121D01*
X117373863Y-70867622D01*
X117127000Y-70994430D01*
X116873000Y-70994430D01*
X116626137Y-70867622D01*
X116329554Y-70961121D01*
X116056911Y-71110684D01*
X115818685Y-71310563D01*
X115624031Y-71553077D01*
X115480429Y-71828906D01*
X115409437Y-72047020D01*
X108873637Y-72047020D01*
X108823953Y-71797244D01*
X108663012Y-71408698D01*
X108429363Y-71059017D01*
X108131983Y-70761637D01*
X107782302Y-70527988D01*
X107393756Y-70367047D01*
X106981279Y-70285000D01*
X106560721Y-70285000D01*
X106148244Y-70367047D01*
X105759698Y-70527988D01*
X105410017Y-70761637D01*
X105112637Y-71059017D01*
X104878988Y-71408698D01*
X104718047Y-71797244D01*
X104636000Y-72209721D01*
X102910000Y-72209721D01*
X102910000Y-63859000D01*
X104632928Y-63859000D01*
X104632928Y-66859000D01*
X104645188Y-66983482D01*
X104681498Y-67103180D01*
X104740463Y-67213494D01*
X104819815Y-67310185D01*
X104916506Y-67389537D01*
X105026820Y-67448502D01*
X105146518Y-67484812D01*
X105271000Y-67497072D01*
X108271000Y-67497072D01*
X108395482Y-67484812D01*
X108515180Y-67448502D01*
X108625494Y-67389537D01*
X108722185Y-67310185D01*
X108801537Y-67213494D01*
X108860502Y-67103180D01*
X108896812Y-66983482D01*
X108909072Y-66859000D01*
X108909072Y-63859000D01*
X108896812Y-63734518D01*
X108860502Y-63614820D01*
X108801537Y-63504506D01*
X108722185Y-63407815D01*
X108625494Y-63328463D01*
X108515180Y-63269498D01*
X108395482Y-63233188D01*
X108271000Y-63220928D01*
X105271000Y-63220928D01*
X105146518Y-63233188D01*
X105026820Y-63269498D01*
X104916506Y-63328463D01*
X104819815Y-63407815D01*
X104740463Y-63504506D01*
X104681498Y-63614820D01*
X104645188Y-63734518D01*
X104632928Y-63859000D01*
X102910000Y-63859000D01*
X102910000Y-62895200D01*
X115516919Y-62895200D01*
X115547570Y-63206404D01*
X115638345Y-63505649D01*
X115785755Y-63781435D01*
X115889046Y-63907295D01*
X115805106Y-63952163D01*
X115708415Y-64031515D01*
X115629063Y-64128206D01*
X115570098Y-64238520D01*
X115533788Y-64358218D01*
X115521528Y-64482700D01*
X115521528Y-66387700D01*
X115533788Y-66512182D01*
X115570098Y-66631880D01*
X115629063Y-66742194D01*
X115708415Y-66838885D01*
X115805106Y-66918237D01*
X115915420Y-66977202D01*
X116035118Y-67013512D01*
X116159600Y-67025772D01*
X118159600Y-67025772D01*
X118284082Y-67013512D01*
X118403780Y-66977202D01*
X118514094Y-66918237D01*
X118610785Y-66838885D01*
X118683730Y-66750000D01*
X123611928Y-66750000D01*
X123624188Y-66874482D01*
X123660498Y-66994180D01*
X123719463Y-67104494D01*
X123798815Y-67201185D01*
X123895506Y-67280537D01*
X124005820Y-67339502D01*
X124125518Y-67375812D01*
X124250000Y-67388072D01*
X125464250Y-67385000D01*
X125623000Y-67226250D01*
X125623000Y-65377000D01*
X125877000Y-65377000D01*
X125877000Y-67226250D01*
X126035750Y-67385000D01*
X127250000Y-67388072D01*
X127374482Y-67375812D01*
X127494180Y-67339502D01*
X127604494Y-67280537D01*
X127701185Y-67201185D01*
X127780537Y-67104494D01*
X127839502Y-66994180D01*
X127875812Y-66874482D01*
X127888072Y-66750000D01*
X127885000Y-65535750D01*
X127726250Y-65377000D01*
X125877000Y-65377000D01*
X125623000Y-65377000D01*
X123773750Y-65377000D01*
X123615000Y-65535750D01*
X123611928Y-66750000D01*
X118683730Y-66750000D01*
X118690137Y-66742194D01*
X118749102Y-66631880D01*
X118785412Y-66512182D01*
X118797672Y-66387700D01*
X118797672Y-64482700D01*
X118785412Y-64358218D01*
X118749102Y-64238520D01*
X118690137Y-64128206D01*
X118610785Y-64031515D01*
X118514094Y-63952163D01*
X118430154Y-63907295D01*
X118533445Y-63781435D01*
X118550247Y-63750000D01*
X123611928Y-63750000D01*
X123615000Y-64964250D01*
X123773750Y-65123000D01*
X125623000Y-65123000D01*
X125623000Y-63273750D01*
X125877000Y-63273750D01*
X125877000Y-65123000D01*
X127726250Y-65123000D01*
X127885000Y-64964250D01*
X127888072Y-63750000D01*
X127875812Y-63625518D01*
X127839502Y-63505820D01*
X127780537Y-63395506D01*
X127701185Y-63298815D01*
X127604494Y-63219463D01*
X127494180Y-63160498D01*
X127374482Y-63124188D01*
X127250000Y-63111928D01*
X126035750Y-63115000D01*
X125877000Y-63273750D01*
X125623000Y-63273750D01*
X125464250Y-63115000D01*
X124250000Y-63111928D01*
X124125518Y-63124188D01*
X124005820Y-63160498D01*
X123895506Y-63219463D01*
X123798815Y-63298815D01*
X123719463Y-63395506D01*
X123660498Y-63505820D01*
X123624188Y-63625518D01*
X123611928Y-63750000D01*
X118550247Y-63750000D01*
X118680855Y-63505649D01*
X118771630Y-63206404D01*
X118802281Y-62895200D01*
X118771630Y-62583996D01*
X118680855Y-62284751D01*
X118533445Y-62008965D01*
X118335063Y-61767237D01*
X118155701Y-61620037D01*
X118340915Y-61464637D01*
X118535569Y-61222123D01*
X118679171Y-60946294D01*
X118750163Y-60728180D01*
X118630194Y-60482200D01*
X117286600Y-60482200D01*
X117286600Y-60502200D01*
X117032600Y-60502200D01*
X117032600Y-60482200D01*
X115689006Y-60482200D01*
X115569037Y-60728180D01*
X115640029Y-60946294D01*
X115783631Y-61222123D01*
X115978285Y-61464637D01*
X116163499Y-61620037D01*
X115984137Y-61767237D01*
X115785755Y-62008965D01*
X115638345Y-62284751D01*
X115547570Y-62583996D01*
X115516919Y-62895200D01*
X102910000Y-62895200D01*
X102910000Y-60068721D01*
X104636000Y-60068721D01*
X104636000Y-60489279D01*
X104718047Y-60901756D01*
X104878988Y-61290302D01*
X105112637Y-61639983D01*
X105410017Y-61937363D01*
X105759698Y-62171012D01*
X106148244Y-62331953D01*
X106560721Y-62414000D01*
X106981279Y-62414000D01*
X107393756Y-62331953D01*
X107782302Y-62171012D01*
X108131983Y-61937363D01*
X108429363Y-61639983D01*
X108663012Y-61290302D01*
X108823953Y-60901756D01*
X108906000Y-60489279D01*
X108906000Y-60068721D01*
X108888794Y-59982220D01*
X115569037Y-59982220D01*
X115689006Y-60228200D01*
X117032600Y-60228200D01*
X117032600Y-58929630D01*
X117286600Y-58929630D01*
X117286600Y-60228200D01*
X118630194Y-60228200D01*
X118750163Y-59982220D01*
X118742840Y-59959721D01*
X123615000Y-59959721D01*
X123615000Y-60380279D01*
X123697047Y-60792756D01*
X123857988Y-61181302D01*
X124091637Y-61530983D01*
X124389017Y-61828363D01*
X124738698Y-62062012D01*
X125127244Y-62222953D01*
X125539721Y-62305000D01*
X125960279Y-62305000D01*
X126372756Y-62222953D01*
X126761302Y-62062012D01*
X127110983Y-61828363D01*
X127408363Y-61530983D01*
X127642012Y-61181302D01*
X127802953Y-60792756D01*
X127885000Y-60380279D01*
X127885000Y-59959721D01*
X127802953Y-59547244D01*
X127642012Y-59158698D01*
X127408363Y-58809017D01*
X127110983Y-58511637D01*
X126761302Y-58277988D01*
X126372756Y-58117047D01*
X125960279Y-58035000D01*
X125539721Y-58035000D01*
X125127244Y-58117047D01*
X124738698Y-58277988D01*
X124389017Y-58511637D01*
X124091637Y-58809017D01*
X123857988Y-59158698D01*
X123697047Y-59547244D01*
X123615000Y-59959721D01*
X118742840Y-59959721D01*
X118679171Y-59764106D01*
X118535569Y-59488277D01*
X118340915Y-59245763D01*
X118102689Y-59045884D01*
X117830046Y-58896321D01*
X117533463Y-58802822D01*
X117286600Y-58929630D01*
X117032600Y-58929630D01*
X116785737Y-58802822D01*
X116489154Y-58896321D01*
X116216511Y-59045884D01*
X115978285Y-59245763D01*
X115783631Y-59488277D01*
X115640029Y-59764106D01*
X115569037Y-59982220D01*
X108888794Y-59982220D01*
X108823953Y-59656244D01*
X108663012Y-59267698D01*
X108429363Y-58918017D01*
X108131983Y-58620637D01*
X107782302Y-58386988D01*
X107393756Y-58226047D01*
X106981279Y-58144000D01*
X106560721Y-58144000D01*
X106148244Y-58226047D01*
X105759698Y-58386988D01*
X105410017Y-58620637D01*
X105112637Y-58918017D01*
X104878988Y-59267698D01*
X104718047Y-59656244D01*
X104636000Y-60068721D01*
X102910000Y-60068721D01*
X102910000Y-57660000D01*
X129590000Y-57660000D01*
X129590001Y-80090000D01*
G37*
X129590001Y-80090000D02*
X102910000Y-80090000D01*
X102910000Y-76000000D01*
X104632928Y-76000000D01*
X104632928Y-79000000D01*
X104645188Y-79124482D01*
X104681498Y-79244180D01*
X104740463Y-79354494D01*
X104819815Y-79451185D01*
X104916506Y-79530537D01*
X105026820Y-79589502D01*
X105146518Y-79625812D01*
X105271000Y-79638072D01*
X108271000Y-79638072D01*
X108395482Y-79625812D01*
X108515180Y-79589502D01*
X108625494Y-79530537D01*
X108722185Y-79451185D01*
X108801537Y-79354494D01*
X108860502Y-79244180D01*
X108896812Y-79124482D01*
X108899223Y-79100000D01*
X120971928Y-79100000D01*
X120984188Y-79224482D01*
X121020498Y-79344180D01*
X121079463Y-79454494D01*
X121158815Y-79551185D01*
X121255506Y-79630537D01*
X121365820Y-79689502D01*
X121485518Y-79725812D01*
X121610000Y-79738072D01*
X122174250Y-79735000D01*
X122333000Y-79576250D01*
X122333000Y-78377000D01*
X121133750Y-78377000D01*
X120975000Y-78535750D01*
X120971928Y-79100000D01*
X108899223Y-79100000D01*
X108909072Y-79000000D01*
X108909072Y-76000000D01*
X108896812Y-75875518D01*
X108860502Y-75755820D01*
X108801537Y-75645506D01*
X108722185Y-75548815D01*
X108625494Y-75469463D01*
X108515180Y-75410498D01*
X108395482Y-75374188D01*
X108271000Y-75361928D01*
X105271000Y-75361928D01*
X105146518Y-75374188D01*
X105026820Y-75410498D01*
X104916506Y-75469463D01*
X104819815Y-75548815D01*
X104740463Y-75645506D01*
X104681498Y-75755820D01*
X104645188Y-75875518D01*
X104632928Y-76000000D01*
X102910000Y-76000000D01*
X102910000Y-74960000D01*
X115357319Y-74960000D01*
X115387970Y-75271204D01*
X115478745Y-75570449D01*
X115626155Y-75846235D01*
X115729446Y-75972095D01*
X115645506Y-76016963D01*
X115548815Y-76096315D01*
X115469463Y-76193006D01*
X115410498Y-76303320D01*
X115374188Y-76423018D01*
X115361928Y-76547500D01*
X115361928Y-78452500D01*
X115374188Y-78576982D01*
X115410498Y-78696680D01*
X115469463Y-78806994D01*
X115548815Y-78903685D01*
X115645506Y-78983037D01*
X115755820Y-79042002D01*
X115875518Y-79078312D01*
X116000000Y-79090572D01*
X118000000Y-79090572D01*
X118124482Y-79078312D01*
X118244180Y-79042002D01*
X118354494Y-78983037D01*
X118451185Y-78903685D01*
X118530537Y-78806994D01*
X118589502Y-78696680D01*
X118625812Y-78576982D01*
X118638072Y-78452500D01*
X118638072Y-77400000D01*
X120971928Y-77400000D01*
X120975000Y-77964250D01*
X121133750Y-78123000D01*
X122333000Y-78123000D01*
X122333000Y-76923750D01*
X122587000Y-76923750D01*
X122587000Y-78123000D01*
X122607000Y-78123000D01*
X122607000Y-78377000D01*
X122587000Y-78377000D01*
X122587000Y-79576250D01*
X122745750Y-79735000D01*
X123310000Y-79738072D01*
X123434482Y-79725812D01*
X123554180Y-79689502D01*
X123664494Y-79630537D01*
X123761185Y-79551185D01*
X123840537Y-79454494D01*
X123899502Y-79344180D01*
X123921513Y-79271620D01*
X124053368Y-79403475D01*
X124296589Y-79565990D01*
X124566842Y-79677932D01*
X124853740Y-79735000D01*
X125146260Y-79735000D01*
X125433158Y-79677932D01*
X125703411Y-79565990D01*
X125946632Y-79403475D01*
X126153475Y-79196632D01*
X126270000Y-79022240D01*
X126386525Y-79196632D01*
X126593368Y-79403475D01*
X126836589Y-79565990D01*
X127106842Y-79677932D01*
X127393740Y-79735000D01*
X127686260Y-79735000D01*
X127973158Y-79677932D01*
X128243411Y-79565990D01*
X128486632Y-79403475D01*
X128693475Y-79196632D01*
X128855990Y-78953411D01*
X128967932Y-78683158D01*
X129025000Y-78396260D01*
X129025000Y-78103740D01*
X128967932Y-77816842D01*
X128855990Y-77546589D01*
X128693475Y-77303368D01*
X128486632Y-77096525D01*
X128243411Y-76934010D01*
X127973158Y-76822068D01*
X127686260Y-76765000D01*
X127393740Y-76765000D01*
X127106842Y-76822068D01*
X126836589Y-76934010D01*
X126593368Y-77096525D01*
X126386525Y-77303368D01*
X126270000Y-77477760D01*
X126153475Y-77303368D01*
X125946632Y-77096525D01*
X125703411Y-76934010D01*
X125433158Y-76822068D01*
X125146260Y-76765000D01*
X124853740Y-76765000D01*
X124566842Y-76822068D01*
X124296589Y-76934010D01*
X124053368Y-77096525D01*
X123921513Y-77228380D01*
X123899502Y-77155820D01*
X123840537Y-77045506D01*
X123761185Y-76948815D01*
X123664494Y-76869463D01*
X123554180Y-76810498D01*
X123434482Y-76774188D01*
X123310000Y-76761928D01*
X122745750Y-76765000D01*
X122587000Y-76923750D01*
X122333000Y-76923750D01*
X122174250Y-76765000D01*
X121610000Y-76761928D01*
X121485518Y-76774188D01*
X121365820Y-76810498D01*
X121255506Y-76869463D01*
X121158815Y-76948815D01*
X121079463Y-77045506D01*
X121020498Y-77155820D01*
X120984188Y-77275518D01*
X120971928Y-77400000D01*
X118638072Y-77400000D01*
X118638072Y-76547500D01*
X118625812Y-76423018D01*
X118589502Y-76303320D01*
X118530537Y-76193006D01*
X118451185Y-76096315D01*
X118354494Y-76016963D01*
X118270554Y-75972095D01*
X118373845Y-75846235D01*
X118521255Y-75570449D01*
X118612030Y-75271204D01*
X118642681Y-74960000D01*
X118612030Y-74648796D01*
X118521255Y-74349551D01*
X118373845Y-74073765D01*
X118175463Y-73832037D01*
X117996101Y-73684837D01*
X118181315Y-73529437D01*
X118375969Y-73286923D01*
X118519571Y-73011094D01*
X118590563Y-72792980D01*
X118470594Y-72547000D01*
X117127000Y-72547000D01*
X117127000Y-72567000D01*
X116873000Y-72567000D01*
X116873000Y-72547000D01*
X115529406Y-72547000D01*
X115409437Y-72792980D01*
X115480429Y-73011094D01*
X115624031Y-73286923D01*
X115818685Y-73529437D01*
X116003899Y-73684837D01*
X115824537Y-73832037D01*
X115626155Y-74073765D01*
X115478745Y-74349551D01*
X115387970Y-74648796D01*
X115357319Y-74960000D01*
X102910000Y-74960000D01*
X102910000Y-72209721D01*
X104636000Y-72209721D01*
X104636000Y-72630279D01*
X104718047Y-73042756D01*
X104878988Y-73431302D01*
X105112637Y-73780983D01*
X105410017Y-74078363D01*
X105759698Y-74312012D01*
X106148244Y-74472953D01*
X106560721Y-74555000D01*
X106981279Y-74555000D01*
X107393756Y-74472953D01*
X107782302Y-74312012D01*
X108131983Y-74078363D01*
X108429363Y-73780983D01*
X108663012Y-73431302D01*
X108823953Y-73042756D01*
X108906000Y-72630279D01*
X108906000Y-72209721D01*
X108873637Y-72047020D01*
X115409437Y-72047020D01*
X115529406Y-72293000D01*
X116873000Y-72293000D01*
X116873000Y-70994430D01*
X117127000Y-70994430D01*
X117127000Y-72293000D01*
X118470594Y-72293000D01*
X118590563Y-72047020D01*
X118519571Y-71828906D01*
X118375969Y-71553077D01*
X118181315Y-71310563D01*
X117943089Y-71110684D01*
X117670446Y-70961121D01*
X117373863Y-70867622D01*
X117127000Y-70994430D01*
X116873000Y-70994430D01*
X116626137Y-70867622D01*
X116329554Y-70961121D01*
X116056911Y-71110684D01*
X115818685Y-71310563D01*
X115624031Y-71553077D01*
X115480429Y-71828906D01*
X115409437Y-72047020D01*
X108873637Y-72047020D01*
X108823953Y-71797244D01*
X108663012Y-71408698D01*
X108429363Y-71059017D01*
X108131983Y-70761637D01*
X107782302Y-70527988D01*
X107393756Y-70367047D01*
X106981279Y-70285000D01*
X106560721Y-70285000D01*
X106148244Y-70367047D01*
X105759698Y-70527988D01*
X105410017Y-70761637D01*
X105112637Y-71059017D01*
X104878988Y-71408698D01*
X104718047Y-71797244D01*
X104636000Y-72209721D01*
X102910000Y-72209721D01*
X102910000Y-63859000D01*
X104632928Y-63859000D01*
X104632928Y-66859000D01*
X104645188Y-66983482D01*
X104681498Y-67103180D01*
X104740463Y-67213494D01*
X104819815Y-67310185D01*
X104916506Y-67389537D01*
X105026820Y-67448502D01*
X105146518Y-67484812D01*
X105271000Y-67497072D01*
X108271000Y-67497072D01*
X108395482Y-67484812D01*
X108515180Y-67448502D01*
X108625494Y-67389537D01*
X108722185Y-67310185D01*
X108801537Y-67213494D01*
X108860502Y-67103180D01*
X108896812Y-66983482D01*
X108909072Y-66859000D01*
X108909072Y-63859000D01*
X108896812Y-63734518D01*
X108860502Y-63614820D01*
X108801537Y-63504506D01*
X108722185Y-63407815D01*
X108625494Y-63328463D01*
X108515180Y-63269498D01*
X108395482Y-63233188D01*
X108271000Y-63220928D01*
X105271000Y-63220928D01*
X105146518Y-63233188D01*
X105026820Y-63269498D01*
X104916506Y-63328463D01*
X104819815Y-63407815D01*
X104740463Y-63504506D01*
X104681498Y-63614820D01*
X104645188Y-63734518D01*
X104632928Y-63859000D01*
X102910000Y-63859000D01*
X102910000Y-62895200D01*
X115516919Y-62895200D01*
X115547570Y-63206404D01*
X115638345Y-63505649D01*
X115785755Y-63781435D01*
X115889046Y-63907295D01*
X115805106Y-63952163D01*
X115708415Y-64031515D01*
X115629063Y-64128206D01*
X115570098Y-64238520D01*
X115533788Y-64358218D01*
X115521528Y-64482700D01*
X115521528Y-66387700D01*
X115533788Y-66512182D01*
X115570098Y-66631880D01*
X115629063Y-66742194D01*
X115708415Y-66838885D01*
X115805106Y-66918237D01*
X115915420Y-66977202D01*
X116035118Y-67013512D01*
X116159600Y-67025772D01*
X118159600Y-67025772D01*
X118284082Y-67013512D01*
X118403780Y-66977202D01*
X118514094Y-66918237D01*
X118610785Y-66838885D01*
X118683730Y-66750000D01*
X123611928Y-66750000D01*
X123624188Y-66874482D01*
X123660498Y-66994180D01*
X123719463Y-67104494D01*
X123798815Y-67201185D01*
X123895506Y-67280537D01*
X124005820Y-67339502D01*
X124125518Y-67375812D01*
X124250000Y-67388072D01*
X125464250Y-67385000D01*
X125623000Y-67226250D01*
X125623000Y-65377000D01*
X125877000Y-65377000D01*
X125877000Y-67226250D01*
X126035750Y-67385000D01*
X127250000Y-67388072D01*
X127374482Y-67375812D01*
X127494180Y-67339502D01*
X127604494Y-67280537D01*
X127701185Y-67201185D01*
X127780537Y-67104494D01*
X127839502Y-66994180D01*
X127875812Y-66874482D01*
X127888072Y-66750000D01*
X127885000Y-65535750D01*
X127726250Y-65377000D01*
X125877000Y-65377000D01*
X125623000Y-65377000D01*
X123773750Y-65377000D01*
X123615000Y-65535750D01*
X123611928Y-66750000D01*
X118683730Y-66750000D01*
X118690137Y-66742194D01*
X118749102Y-66631880D01*
X118785412Y-66512182D01*
X118797672Y-66387700D01*
X118797672Y-64482700D01*
X118785412Y-64358218D01*
X118749102Y-64238520D01*
X118690137Y-64128206D01*
X118610785Y-64031515D01*
X118514094Y-63952163D01*
X118430154Y-63907295D01*
X118533445Y-63781435D01*
X118550247Y-63750000D01*
X123611928Y-63750000D01*
X123615000Y-64964250D01*
X123773750Y-65123000D01*
X125623000Y-65123000D01*
X125623000Y-63273750D01*
X125877000Y-63273750D01*
X125877000Y-65123000D01*
X127726250Y-65123000D01*
X127885000Y-64964250D01*
X127888072Y-63750000D01*
X127875812Y-63625518D01*
X127839502Y-63505820D01*
X127780537Y-63395506D01*
X127701185Y-63298815D01*
X127604494Y-63219463D01*
X127494180Y-63160498D01*
X127374482Y-63124188D01*
X127250000Y-63111928D01*
X126035750Y-63115000D01*
X125877000Y-63273750D01*
X125623000Y-63273750D01*
X125464250Y-63115000D01*
X124250000Y-63111928D01*
X124125518Y-63124188D01*
X124005820Y-63160498D01*
X123895506Y-63219463D01*
X123798815Y-63298815D01*
X123719463Y-63395506D01*
X123660498Y-63505820D01*
X123624188Y-63625518D01*
X123611928Y-63750000D01*
X118550247Y-63750000D01*
X118680855Y-63505649D01*
X118771630Y-63206404D01*
X118802281Y-62895200D01*
X118771630Y-62583996D01*
X118680855Y-62284751D01*
X118533445Y-62008965D01*
X118335063Y-61767237D01*
X118155701Y-61620037D01*
X118340915Y-61464637D01*
X118535569Y-61222123D01*
X118679171Y-60946294D01*
X118750163Y-60728180D01*
X118630194Y-60482200D01*
X117286600Y-60482200D01*
X117286600Y-60502200D01*
X117032600Y-60502200D01*
X117032600Y-60482200D01*
X115689006Y-60482200D01*
X115569037Y-60728180D01*
X115640029Y-60946294D01*
X115783631Y-61222123D01*
X115978285Y-61464637D01*
X116163499Y-61620037D01*
X115984137Y-61767237D01*
X115785755Y-62008965D01*
X115638345Y-62284751D01*
X115547570Y-62583996D01*
X115516919Y-62895200D01*
X102910000Y-62895200D01*
X102910000Y-60068721D01*
X104636000Y-60068721D01*
X104636000Y-60489279D01*
X104718047Y-60901756D01*
X104878988Y-61290302D01*
X105112637Y-61639983D01*
X105410017Y-61937363D01*
X105759698Y-62171012D01*
X106148244Y-62331953D01*
X106560721Y-62414000D01*
X106981279Y-62414000D01*
X107393756Y-62331953D01*
X107782302Y-62171012D01*
X108131983Y-61937363D01*
X108429363Y-61639983D01*
X108663012Y-61290302D01*
X108823953Y-60901756D01*
X108906000Y-60489279D01*
X108906000Y-60068721D01*
X108888794Y-59982220D01*
X115569037Y-59982220D01*
X115689006Y-60228200D01*
X117032600Y-60228200D01*
X117032600Y-58929630D01*
X117286600Y-58929630D01*
X117286600Y-60228200D01*
X118630194Y-60228200D01*
X118750163Y-59982220D01*
X118742840Y-59959721D01*
X123615000Y-59959721D01*
X123615000Y-60380279D01*
X123697047Y-60792756D01*
X123857988Y-61181302D01*
X124091637Y-61530983D01*
X124389017Y-61828363D01*
X124738698Y-62062012D01*
X125127244Y-62222953D01*
X125539721Y-62305000D01*
X125960279Y-62305000D01*
X126372756Y-62222953D01*
X126761302Y-62062012D01*
X127110983Y-61828363D01*
X127408363Y-61530983D01*
X127642012Y-61181302D01*
X127802953Y-60792756D01*
X127885000Y-60380279D01*
X127885000Y-59959721D01*
X127802953Y-59547244D01*
X127642012Y-59158698D01*
X127408363Y-58809017D01*
X127110983Y-58511637D01*
X126761302Y-58277988D01*
X126372756Y-58117047D01*
X125960279Y-58035000D01*
X125539721Y-58035000D01*
X125127244Y-58117047D01*
X124738698Y-58277988D01*
X124389017Y-58511637D01*
X124091637Y-58809017D01*
X123857988Y-59158698D01*
X123697047Y-59547244D01*
X123615000Y-59959721D01*
X118742840Y-59959721D01*
X118679171Y-59764106D01*
X118535569Y-59488277D01*
X118340915Y-59245763D01*
X118102689Y-59045884D01*
X117830046Y-58896321D01*
X117533463Y-58802822D01*
X117286600Y-58929630D01*
X117032600Y-58929630D01*
X116785737Y-58802822D01*
X116489154Y-58896321D01*
X116216511Y-59045884D01*
X115978285Y-59245763D01*
X115783631Y-59488277D01*
X115640029Y-59764106D01*
X115569037Y-59982220D01*
X108888794Y-59982220D01*
X108823953Y-59656244D01*
X108663012Y-59267698D01*
X108429363Y-58918017D01*
X108131983Y-58620637D01*
X107782302Y-58386988D01*
X107393756Y-58226047D01*
X106981279Y-58144000D01*
X106560721Y-58144000D01*
X106148244Y-58226047D01*
X105759698Y-58386988D01*
X105410017Y-58620637D01*
X105112637Y-58918017D01*
X104878988Y-59267698D01*
X104718047Y-59656244D01*
X104636000Y-60068721D01*
X102910000Y-60068721D01*
X102910000Y-57660000D01*
X129590000Y-57660000D01*
X129590001Y-80090000D01*
%TD*%
M02*
