%TF.GenerationSoftware,KiCad,Pcbnew,(5.1.6)-1*%
%TF.CreationDate,2021-01-05T23:21:16+01:00*%
%TF.ProjectId,LEDController,4c454443-6f6e-4747-926f-6c6c65722e6b,rev?*%
%TF.SameCoordinates,Original*%
%TF.FileFunction,Paste,Top*%
%TF.FilePolarity,Positive*%
%FSLAX46Y46*%
G04 Gerber Fmt 4.6, Leading zero omitted, Abs format (unit mm)*
G04 Created by KiCad (PCBNEW (5.1.6)-1) date 2021-01-05 23:21:16*
%MOMM*%
%LPD*%
G01*
G04 APERTURE LIST*
%ADD10R,2.150000X1.400000*%
%ADD11R,0.450000X1.400000*%
G04 APERTURE END LIST*
D10*
%TO.C,U4*%
X121750000Y-72250000D03*
D11*
X122700000Y-70050000D03*
X122050000Y-70050000D03*
X121400000Y-70050000D03*
X120750000Y-70050000D03*
X122700000Y-74450000D03*
X122050000Y-74450000D03*
X121400000Y-74450000D03*
X120750000Y-74450000D03*
%TD*%
%TO.C,C2*%
G36*
G01*
X125043750Y-72762500D02*
X125956250Y-72762500D01*
G75*
G02*
X126200000Y-73006250I0J-243750D01*
G01*
X126200000Y-73493750D01*
G75*
G02*
X125956250Y-73737500I-243750J0D01*
G01*
X125043750Y-73737500D01*
G75*
G02*
X124800000Y-73493750I0J243750D01*
G01*
X124800000Y-73006250D01*
G75*
G02*
X125043750Y-72762500I243750J0D01*
G01*
G37*
G36*
G01*
X125043750Y-70887500D02*
X125956250Y-70887500D01*
G75*
G02*
X126200000Y-71131250I0J-243750D01*
G01*
X126200000Y-71618750D01*
G75*
G02*
X125956250Y-71862500I-243750J0D01*
G01*
X125043750Y-71862500D01*
G75*
G02*
X124800000Y-71618750I0J243750D01*
G01*
X124800000Y-71131250D01*
G75*
G02*
X125043750Y-70887500I243750J0D01*
G01*
G37*
%TD*%
%TO.C,C1*%
G36*
G01*
X127793750Y-72762500D02*
X128706250Y-72762500D01*
G75*
G02*
X128950000Y-73006250I0J-243750D01*
G01*
X128950000Y-73493750D01*
G75*
G02*
X128706250Y-73737500I-243750J0D01*
G01*
X127793750Y-73737500D01*
G75*
G02*
X127550000Y-73493750I0J243750D01*
G01*
X127550000Y-73006250D01*
G75*
G02*
X127793750Y-72762500I243750J0D01*
G01*
G37*
G36*
G01*
X127793750Y-70887500D02*
X128706250Y-70887500D01*
G75*
G02*
X128950000Y-71131250I0J-243750D01*
G01*
X128950000Y-71618750D01*
G75*
G02*
X128706250Y-71862500I-243750J0D01*
G01*
X127793750Y-71862500D01*
G75*
G02*
X127550000Y-71618750I0J243750D01*
G01*
X127550000Y-71131250D01*
G75*
G02*
X127793750Y-70887500I243750J0D01*
G01*
G37*
%TD*%
M02*
