M48
; DRILL file {KiCad (5.1.6)-1} date 01/05/21 23:21:04
; FORMAT={-:-/ absolute / inch / decimal}
; #@! TF.CreationDate,2021-01-05T23:21:04+01:00
; #@! TF.GenerationSoftware,Kicad,Pcbnew,(5.1.6)-1
; #@! TF.FileFunction,Plated,1,2,PTH
FMAT,2
INCH
T1C0.0157
T2C0.0394
T3C0.0433
T4C0.0598
%
G90
G05
T1
X5.0098Y-2.9429
X5.0098Y-2.9823
X5.0492Y-2.9429
X5.0492Y-2.9823
X5.0886Y-2.9429
X5.0886Y-2.9823
T2
X4.8213Y-3.0807
X4.9213Y-3.0807
X5.0213Y-3.0807
T3
X4.6063Y-2.8512
X4.6063Y-2.9512
X4.6063Y-3.0512
X4.6126Y-2.3762
X4.6126Y-2.4762
X4.6126Y-2.5762
T4
X4.2036Y-2.3732
X4.2036Y-2.5732
X4.9508Y-2.3689
X4.9508Y-2.5689
X4.2036Y-2.8512
X4.2036Y-3.0512
T0
M30
